<svg xmlns="http://www.w3.org/2000/svg" viewBox="0 0 189.32 134.05"><defs><style>.cls-1{fill:none;stroke:#232323;stroke-miterlimit:10;stroke-width:3px;}.cls-2{font-size:21px;}.cls-2,.cls-3,.cls-4{fill:#232323;}.cls-2,.cls-3{font-family:OldStandardTT-Bold, Old Standard TT;font-weight:700;}.cls-3{font-size:36px;}</style></defs><title>logoAsset 3</title><g id="Layer_2" data-name="Layer 2"><g id="Logo"><line class="cls-1" x1="9.87" y1="36.61" x2="179.9" y2="36.61"/><path class="cls-1" d="M173.35,17.53A7.55,7.55,0,0,1,179.44,14c4.63,0,8.38,5.07,8.38,11.31s-3.75,11.31-8.38,11.31"/><path class="cls-1" d="M9.88,36.61c-4.63,0-8.38-5.06-8.38-11.31S5.25,14,9.88,14A7.55,7.55,0,0,1,16,17.53"/><text class="cls-2" transform="translate(71.27 127.88)">1890</text><line class="cls-1" x1="30.11" y1="105.27" x2="159.56" y2="105.27"/><path class="cls-1" d="M159.21,105.26c3.53,0,6.38,5.07,6.38,11.31s-2.85,11.31-6.38,11.31c-1.83,0-3.47-1.36-4.64-3.54"/><path class="cls-1" d="M34.75,124.34c-1.16,2.18-2.81,3.54-4.64,3.54-3.52,0-6.38-5.06-6.38-11.31s2.86-11.31,6.38-11.31"/><text class="cls-3" transform="translate(4.88 80.26)">JOSEPH’S</text><path class="cls-4" d="M77.62,18.69c6.77,9.8,10.16,14.7,11.6,14.09,2-.87,1-11.77-4.77-20.22S68.92-.77,67.36.82C66.13,2.07,70,7.61,77.62,18.69Z"/><path class="cls-4" d="M111.31,19.25c-6.57,9.41-9.85,14.11-11.22,13.53-2.06-.88-1-12.38,5.36-21.07C111.14,3.9,120.42-.75,122,.82,123.25,2.15,119.17,8,111.31,19.25Z"/><path class="cls-4" d="M99.11,14.62c.37,8.94-2.45,18.79-4.81,18.73s-4.38-9.82-4.1-18C90.45,8.56,92.43,0,94.61,0S98.83,8,99.11,14.62Z"/></g></g></svg>