<svg xmlns="http://www.w3.org/2000/svg" viewBox="0 0 189.4 134.03"><defs><style>.cls-1{fill:none;stroke:#fff;stroke-miterlimit:10;stroke-width:3px;}.cls-2,.cls-3{isolation:isolate;font-family:OldStandardTT-Bold, Old Standard TT;font-weight:700;}.cls-2{font-size:21px;}.cls-2,.cls-3,.cls-4{fill:#fff;}.cls-3{font-size:36px;}</style></defs><title>Asset 1</title><g id="Layer_2" data-name="Layer 2"><g id="Layer_1-2" data-name="Layer 1"><g id="Layer_2-2" data-name="Layer 2"><g id="Logo"><g id="Ornament"><line class="cls-1" x1="9.9" y1="36.6" x2="179.9" y2="36.6"/><path class="cls-1" d="M173.4,17.5a7.51,7.51,0,0,1,6.1-3.5c4.6,0,8.4,5.1,8.4,11.3s-3.8,11.3-8.4,11.3"/><path class="cls-1" d="M9.9,36.6c-4.6,0-8.4-5.1-8.4-11.3S5.3,14,9.9,14A7.51,7.51,0,0,1,16,17.5"/><text class="cls-2" transform="translate(71.27 127.86)">1890</text></g><g id="Ornament-2" data-name="Ornament"><line class="cls-1" x1="30.1" y1="105.2" x2="159.6" y2="105.2"/><path class="cls-1" d="M159.2,105.2c3.5,0,6.4,5.1,6.4,11.3s-2.9,11.3-6.4,11.3c-1.8,0-3.5-1.4-4.6-3.5"/><path class="cls-1" d="M34.8,124.3c-1.2,2.2-2.8,3.5-4.6,3.5-3.5,0-6.4-5.1-6.4-11.3s2.9-11.3,6.4-11.3"/></g><text class="cls-3" transform="translate(4.88 80.24)">JOSEPH’S</text><g id="Leafs"><path class="cls-4" d="M77.6,18.7c6.8,9.8,10.2,14.7,11.6,14.1,2-.9,1-11.8-4.8-20.2S68.9-.8,67.4.8C66.1,2,70,7.6,77.6,18.7Z"/><path class="cls-4" d="M111.3,19.2c-6.6,9.4-9.8,14.1-11.2,13.5-2.1-.9-1-12.4,5.4-21.1,5.7-7.8,15-12.5,16.6-10.9C123.3,2.1,119.2,8,111.3,19.2Z"/><path class="cls-4" d="M99.1,14.6c.4,8.9-2.4,18.8-4.8,18.7s-4.4-9.8-4.1-18C90.4,8.5,92.4,0,94.6,0S98.8,8,99.1,14.6Z"/></g></g></g></g></g></svg>